<?xml version="1.0" encoding="UTF-8" standalone="no"?>
<!DOCTYPE svg PUBLIC "-//W3C//DTD SVG 1.1//EN"
 "http://www.w3.org/Graphics/SVG/1.1/DTD/svg11.dtd">
<!-- Generated by graphviz version 8.0.5 (20230430.1635)
 -->
<!-- Title: APPS_main.h Pages: 1 -->
<svg width="148pt" height="84pt"
 viewBox="0.00 0.00 148.38 84.00" xmlns="http://www.w3.org/2000/svg" xmlns:xlink="http://www.w3.org/1999/xlink">
<g id="graph0" class="graph" transform="scale(1 1) rotate(0) translate(4 80)">
<title>APPS_main.h</title>
<!-- Node1 -->
<g id="node1" class="node">
<title>Node1</title>
<g id="a_node1"><a xlink:title="This file contains the prototypes of the main function that is responsible for running the applicatio...">
<polygon fill="#999999" stroke="#666666" points="116.5,-76 39,-76 39,-56 116.5,-56 116.5,-76"/>
<text text-anchor="middle" x="77.75" y="-62.5" font-family="Helvetica,sans-Serif" font-size="10.00">APPS_main.h</text>
</a>
</g>
</g>
<!-- Node2 -->
<g id="node2" class="node">
<title>Node2</title>
<g id="a_node2"><a xlink:href="a00002.html" target="_top" xlink:title="This file contains the implementation of the main function that is responsible for running the applic...">
<polygon fill="white" stroke="#666666" points="77.5,-20 0,-20 0,0 77.5,0 77.5,-20"/>
<text text-anchor="middle" x="38.75" y="-6.5" font-family="Helvetica,sans-Serif" font-size="10.00">APPS_main.c</text>
</a>
</g>
</g>
<!-- Node1&#45;&gt;Node2 -->
<g id="edge1" class="edge">
<title>Node1&#45;&gt;Node2</title>
<path fill="none" stroke="#63b8ff" d="M64.55,-46.72C58.13,-37.84 50.7,-27.55 45.47,-20.3"/>
<polygon fill="#63b8ff" stroke="#63b8ff" points="62.26,-48.54 70.96,-54.59 67.94,-44.44 62.26,-48.54"/>
</g>
<!-- Node3 -->
<g id="node3" class="node">
<title>Node3</title>
<g id="a_node3"><a xlink:href="a00011.html" target="_top" xlink:title=" ">
<polygon fill="white" stroke="#666666" points="140.38,-20 95.12,-20 95.12,0 140.38,0 140.38,-20"/>
<text text-anchor="middle" x="117.75" y="-6.5" font-family="Helvetica,sans-Serif" font-size="10.00">main.c</text>
</a>
</g>
</g>
<!-- Node1&#45;&gt;Node3 -->
<g id="edge2" class="edge">
<title>Node1&#45;&gt;Node3</title>
<path fill="none" stroke="#63b8ff" d="M91.08,-47C97.71,-38.06 105.44,-27.62 110.86,-20.3"/>
<polygon fill="#63b8ff" stroke="#63b8ff" points="87.86,-44.48 84.72,-54.59 93.48,-48.64 87.86,-44.48"/>
</g>
</g>
</svg>
